grf
version=1
nRows=14
nColumns=37
inDegrees=no
endheader
time	ground_force_1_vx	ground_force_1_vy	ground_force_1_vz	ground_force_1_px	ground_force_1_py	ground_force_1_pz	ground_moment_1_mx	ground_moment_1_my	ground_moment_1_mz	ground_force_2_vx	ground_force_2_vy	ground_force_2_vz	ground_force_2_px	ground_force_2_py	ground_force_2_pz	ground_moment_2_mx	ground_moment_2_my	ground_moment_2_mz	ground_force_3_vx	ground_force_3_vy	ground_force_3_vz	ground_force_3_px	ground_force_3_py	ground_force_3_pz	ground_moment_3_mx	ground_moment_3_my	ground_moment_3_mz	ground_force_4_vx	ground_force_4_vy	ground_force_4_vz	ground_force_4_px	ground_force_4_py	ground_force_4_pz	ground_moment_4_mx	ground_moment_4_my	ground_moment_4_mz
      0.00000000	      0.00000000	     -0.00000000	      0.00000000	      0.00000000	      0.00000000	      0.00000000	      0.00000000	      0.00000000	      0.00000000	      1.54132223	     41.50256348	   -390.57836914	   -338.75789922	  -1066.79731330	      0.00000000	      0.00000000	      0.00000000	   4174.02367595	      4.96024432	    -36.62155576	   -388.00399780	   -334.48886529	   -715.83661841	      0.00000000	     -0.00000000	     -0.00000000	  -3943.76693356	      0.00000000	     -0.00000000	      0.00000000	      0.00000000	      0.00000000	      0.00000000	      0.00000000	      0.00000000	      0.00000000
      0.01000000	      0.00000000	     -0.00000000	      0.00000000	      0.00000000	      0.00000000	      0.00000000	      0.00000000	      0.00000000	      0.00000000	      1.05293691	     41.61360550	   -396.97424316	   -338.26263671	  -1068.50139006	      0.00000000	      0.00000000	      0.00000000	   4087.13112397	      5.51476542	    -36.42041445	   -385.26919556	   -334.09345604	   -716.20992389	      0.00000000	      0.00000000	     -0.00000000	  -3995.58093230	      0.00000000	     -0.00000000	      0.00000000	      0.00000000	      0.00000000	      0.00000000	      0.00000000	      0.00000000	      0.00000000
      0.02000000	      0.00000000	     -0.00000000	      0.00000000	      0.00000000	      0.00000000	      0.00000000	      0.00000000	      0.00000000	      0.00000000	      1.45946896	     42.40817261	   -399.99771118	   -337.53135733	  -1068.83319012	      0.00000000	      0.00000000	      0.00000000	   4084.45803745	      5.62073436	    -36.47686054	   -383.34030151	   -333.82569234	   -715.95629024	      0.00000000	     -0.00000000	     -0.00000000	  -3971.59117697	      0.00000000	     -0.00000000	      0.00000000	      0.00000000	      0.00000000	      0.00000000	      0.00000000	      0.00000000	      0.00000000
      0.03000000	      0.00000000	     -0.00000000	      0.00000000	      0.00000000	      0.00000000	      0.00000000	      0.00000000	      0.00000000	      0.00000000	      1.75218475	     42.44435120	   -402.19952393	   -337.87554550	  -1067.45284376	      0.00000000	      0.00000000	      0.00000000	   4264.87087547	      5.82996430	    -36.63968709	   -380.89709473	   -333.86157990	   -715.80206216	      0.00000000	     -0.00000000	     -0.00000000	  -3903.68533730	      0.00000000	     -0.00000000	      0.00000000	      0.00000000	      0.00000000	      0.00000000	      0.00000000	      0.00000000	      0.00000000
      0.04000000	      0.00000000	     -0.00000000	      0.00000000	      0.00000000	      0.00000000	      0.00000000	      0.00000000	      0.00000000	      0.00000000	      1.54853868	     42.52853394	   -405.50335693	   -337.22536567	  -1068.97358938	      0.00000000	     -0.00000000	     -0.00000000	   4028.07582125	      5.87323918	    -36.60357336	   -379.59997559	   -333.26092092	   -716.14058570	      0.00000000	      0.00000000	      0.00000000	  -3902.28998509	      0.00000000	     -0.00000000	      0.00000000	      0.00000000	      0.00000000	      0.00000000	      0.00000000	      0.00000000	      0.00000000
      0.05000000	      0.00000000	     -0.00000000	      0.00000000	      0.00000000	      0.00000000	      0.00000000	      0.00000000	      0.00000000	      0.00000000	      1.72689414	     42.72533035	   -407.54403687	   -337.22674297	  -1068.38357035	      0.00000000	      0.00000000	     -0.00000000	   4042.80511504	      5.57666842	    -36.33182956	   -378.38116455	   -332.62276254	   -716.09687593	      0.00000000	     -0.00000000	     -0.00000000	  -3752.96421648	      0.00000000	     -0.00000000	      0.00000000	      0.00000000	      0.00000000	      0.00000000	      0.00000000	      0.00000000	      0.00000000
      0.06000000	      0.00000000	     -0.00000000	      0.00000000	      0.00000000	      0.00000000	      0.00000000	      0.00000000	      0.00000000	      0.00000000	      2.07741404	     43.01819611	   -409.10833740	   -336.55784966	  -1068.78565326	      0.00000000	      0.00000000	      0.00000000	   4094.06782904	      5.68381037	    -36.64720585	   -378.03140259	   -332.12013293	   -714.70473452	      0.00000000	     -0.00000000	     -0.00000000	  -3746.33775336	      0.00000000	     -0.00000000	      0.00000000	      0.00000000	      0.00000000	      0.00000000	      0.00000000	      0.00000000	      0.00000000
      0.07000000	      0.00000000	     -0.00000000	      0.00000000	      0.00000000	      0.00000000	      0.00000000	      0.00000000	      0.00000000	      0.00000000	      1.79025996	     43.17084122	   -410.11972046	   -335.67657030	  -1068.70929658	      0.00000000	      0.00000000	      0.00000000	   4129.08814979	      6.01394768	    -35.94693046	   -376.08834839	   -332.20623203	   -715.47736637	      0.00000000	      0.00000000	     -0.00000000	  -3952.17023670	      0.00000000	     -0.00000000	      0.00000000	      0.00000000	      0.00000000	      0.00000000	      0.00000000	      0.00000000	      0.00000000
      0.08000000	      0.00000000	     -0.00000000	      0.00000000	      0.00000000	      0.00000000	      0.00000000	      0.00000000	      0.00000000	      0.00000000	      2.18691349	     43.37485504	   -411.46456909	   -334.92860356	  -1068.21855145	      0.00000000	     -0.00000000	      0.00000000	   4283.91848747	      5.85490869	    -35.57401327	   -374.16638184	   -331.07373496	   -715.97529719	      0.00000000	      0.00000000	     -0.00000000	  -3703.81440413	      0.00000000	     -0.00000000	      0.00000000	      0.00000000	      0.00000000	      0.00000000	      0.00000000	      0.00000000	      0.00000000
      0.09000000	      0.00000000	     -0.00000000	      0.00000000	      0.00000000	      0.00000000	      0.00000000	      0.00000000	      0.00000000	      0.00000000	      1.60016263	     43.78337097	   -411.93295288	   -334.39073199	  -1068.15408085	      0.00000000	      0.00000000	      0.00000000	   4217.72543441	      5.27975771	    -35.73895310	   -373.22061157	   -331.18267350	   -715.49662160	      0.00000000	      0.00000000	     -0.00000000	  -3697.55417097	      0.00000000	     -0.00000000	      0.00000000	      0.00000000	      0.00000000	      0.00000000	      0.00000000	      0.00000000	      0.00000000
      0.10000000	      0.00000000	     -0.00000000	      0.00000000	      0.00000000	      0.00000000	      0.00000000	      0.00000000	      0.00000000	      0.00000000	      0.82900500	     44.26085281	   -414.36190796	   -332.81407172	  -1068.91929288	      0.00000000	      0.00000000	     -0.00000000	   4171.50538965	      4.82731079	    -35.62491650	   -372.09375000	   -330.02911056	   -714.87322321	      0.00000000	      0.00000000	     -0.00000000	  -3585.71949383	      0.00000000	     -0.00000000	      0.00000000	      0.00000000	      0.00000000	      0.00000000	      0.00000000	      0.00000000	      0.00000000
      0.11000000	      0.00000000	     -0.00000000	      0.00000000	      0.00000000	      0.00000000	      0.00000000	      0.00000000	      0.00000000	      0.00000000	      0.26241809	     43.85215759	   -414.52929688	   -329.86567973	  -1068.82302027	      0.00000000	      0.00000000	      0.00000000	   4081.99041664	      4.78508352	    -35.63538402	   -372.91479492	   -328.05125066	   -714.18880262	      0.00000000	      0.00000000	     -0.00000000	  -3459.53428315	      0.00000000	     -0.00000000	      0.00000000	      0.00000000	      0.00000000	      0.00000000	      0.00000000	      0.00000000	      0.00000000
      0.12000000	      0.00000000	     -0.00000000	      0.00000000	      0.00000000	      0.00000000	      0.00000000	      0.00000000	      0.00000000	      0.00000000	     -1.36956668	     44.77484512	   -415.77743530	   -327.97160669	  -1069.82490995	      0.00000000	      0.00000000	      0.00000000	   4044.86391096	      3.96071190	    -36.08736073	   -372.62771606	   -327.79105562	   -713.96853224	      0.00000000	     -0.00000000	     -0.00000000	  -3408.84787699	      0.00000000	     -0.00000000	      0.00000000	      0.00000000	      0.00000000	      0.00000000	      0.00000000	      0.00000000	      0.00000000
      0.13000000	      0.00000000	     -0.00000000	      0.00000000	      0.00000000	      0.00000000	      0.00000000	      0.00000000	      0.00000000	      0.00000000	     -1.83001280	     44.85909271	   -418.49914551	   -325.50731621	  -1071.19531057	      0.00000000	      0.00000000	      0.00000000	   4191.53606809	      3.45971744	    -36.30509598	   -373.83786011	   -325.99028401	   -713.19090764	      0.00000000	      0.00000000	     -0.00000000	  -3551.75713391	      0.00000000	     -0.00000000	      0.00000000	      0.00000000	      0.00000000	      0.00000000	      0.00000000	      0.00000000	      0.00000000
